<svg xmlns:inkscape="http://www.inkscape.org/namespaces/inkscape" xmlns:sodipodi="http://sodipodi.sourceforge.net/DTD/sodipodi-0.dtd" xmlns="http://www.w3.org/2000/svg" xmlns:svg="http://www.w3.org/2000/svg" width="100mm" height="86.879555mm" viewBox="0 0 100 86.879555" id="svg5" inkscape:version="1.1.2 (0a00cf5339, 2022-02-04)" sodipodi:docname="nixos.svg"><defs id="defs2"></defs><g inkscape:label="Ebene 1" inkscape:groupmode="layer" id="layer1" transform="translate(-50,-125)"><g id="g54080"><path id="rect42789" style="fill:#ffffff;stroke:#040000;stroke-width:0.445052" d="m 74.316269,132.72252 h 51.723021 c 0.78444,0 1.41596,0.30546 1.41596,0.68488 v 8.18519 c 0,0.37942 -0.63152,0.68488 -1.41596,0.68488 H 74.316269 c -0.784443,0 -1.415962,-0.30546 -1.415962,-0.68488 v -8.18519 c 0,-0.37942 0.631519,-0.68488 1.415962,-0.68488 z"></path><g aria-label="is not" id="text41101" style="font-size:4.9389px;line-height:1.25;font-family:FiraCode;-inkscape-font-specification:FiraCode;stroke-width:0.264583"><path d="m 92.480713,135.51303 q 0.141836,0 0.225417,0.0861 0.08611,0.0861 0.08611,0.21022 0,0.12917 -0.08611,0.21782 -0.08358,0.0861 -0.225417,0.0861 -0.134236,0 -0.22035,-0.0861 -0.08611,-0.0887 -0.08611,-0.21782 0,-0.12411 0.08611,-0.21022 0.08611,-0.0861 0.22035,-0.0861 z m 0.339392,1.24866 v 2.33015 h 0.752232 v 0.33686 h -2.000888 v -0.33686 h 0.82315 v -1.99329 h -0.797822 v -0.33686 z" id="path53976"></path><path d="m 95.416186,139.13489 q 0.308998,0 0.486292,-0.11397 0.177293,-0.11397 0.177293,-0.309 0,-0.11904 -0.04559,-0.20769 -0.04306,-0.0886 -0.179827,-0.15956 -0.13677,-0.0735 -0.42044,-0.14437 -0.276072,-0.0684 -0.481226,-0.15703 -0.202621,-0.0912 -0.316596,-0.23555 -0.111442,-0.14436 -0.111442,-0.37485 0,-0.33685 0.281137,-0.53188 0.281138,-0.19502 0.731971,-0.19502 0.321661,0 0.559742,0.0861 0.240613,0.0861 0.407776,0.20769 l -0.187425,0.28874 q -0.149434,-0.10385 -0.334326,-0.1697 -0.182359,-0.0684 -0.440702,-0.0684 -0.314063,0 -0.445767,0.0988 -0.131704,0.0962 -0.131704,0.25075 0,0.11904 0.06332,0.19755 0.06585,0.076 0.220351,0.13677 0.154499,0.0608 0.425505,0.13424 0.260876,0.0709 0.455899,0.16716 0.195023,0.0962 0.301399,0.25328 0.108909,0.1545 0.108909,0.40271 0,0.28367 -0.162097,0.46096 -0.162097,0.17476 -0.42044,0.25581 -0.255809,0.0785 -0.542012,0.0785 -0.362186,0 -0.617996,-0.10384 -0.253277,-0.10638 -0.425505,-0.25581 l 0.243146,-0.28114 q 0.157031,0.12917 0.359653,0.21022 0.205154,0.0785 0.440702,0.0785 z" id="path53978"></path><path d="m 100.58809,139.4287 v -2.66701 h 0.36218 l 0.0329,0.36978 q 0.1621,-0.20515 0.40524,-0.31406 0.24315,-0.11144 0.47616,-0.11144 0.39258,0 0.56987,0.20769 0.17983,0.20768 0.17983,0.57747 v 1.93757 h -0.4255 v -1.62351 q 0,-0.27354 -0.0304,-0.4407 -0.0304,-0.16716 -0.12917,-0.24568 -0.0962,-0.0785 -0.29633,-0.0785 -0.15703,0 -0.29634,0.0684 -0.13677,0.0684 -0.24567,0.17223 -0.10638,0.10131 -0.1773,0.20515 v 1.94264 z" id="path53980"></path><path d="m 104.64304,136.70597 q 0.56481,0 0.85355,0.37738 0.28873,0.37738 0.28873,1.01058 0,0.40777 -0.1317,0.72184 -0.13171,0.31406 -0.38752,0.49389 -0.25581,0.17729 -0.62812,0.17729 -0.56481,0 -0.85608,-0.37992 -0.29127,-0.37991 -0.29127,-1.00804 0,-0.41031 0.13171,-0.72437 0.1317,-0.3166 0.38751,-0.49136 0.25834,-0.17729 0.63319,-0.17729 z m 0,0.34699 q -0.34445,0 -0.52175,0.25581 -0.17476,0.25581 -0.17476,0.79022 0,0.52935 0.17223,0.78516 0.17476,0.25328 0.51922,0.25328 0.34445,0 0.51668,-0.25581 0.17476,-0.25581 0.17476,-0.78769 0,-0.53189 -0.17223,-0.78516 -0.17222,-0.25581 -0.51415,-0.25581 z" id="path53982"></path><path d="m 108.78411,139.29446 q -0.13677,0.0912 -0.33179,0.14183 -0.19502,0.0507 -0.38245,0.0507 -0.43057,0 -0.66358,-0.22542 -0.23302,-0.22541 -0.23302,-0.58 v -1.59058 h -0.61293 v -0.32926 h 0.61293 v -0.60533 l 0.42551,-0.0507 v 0.65599 h 0.92193 l -0.0507,0.32926 h -0.87127 v 1.58551 q 0,0.22289 0.1165,0.33939 0.11905,0.11651 0.39258,0.11651 0.14944,0 0.27608,-0.0355 0.12663,-0.0355 0.23554,-0.0912 z" id="path53984"></path></g><path id="rect42789-2" style="fill:#ffffff;stroke:#040000;stroke-width:0.445052" transform="rotate(58.056259)" d="m 159.69335,16.270849 h 51.72302 c 0.78445,0 1.41597,0.305458 1.41597,0.684883 v 8.185183 c 0,0.379425 -0.63152,0.684883 -1.41597,0.684883 h -51.72302 c -0.78444,0 -1.41596,-0.305458 -1.41596,-0.684883 v -8.185183 c 0,-0.379425 0.63152,-0.684883 1.41596,-0.684883 z"></path><g aria-label="is not" transform="rotate(58.056259)" id="text41101-7" style="font-size:4.9389px;line-height:1.25;font-family:FiraCode;-inkscape-font-specification:FiraCode;stroke-width:0.264583"><path d="m 177.8578,19.061365 q 0.14183,0 0.22541,0.08611 0.0861,0.08611 0.0861,0.21022 0,0.129171 -0.0861,0.217818 -0.0836,0.08611 -0.22541,0.08611 -0.13424,0 -0.22035,-0.08611 -0.0861,-0.08865 -0.0861,-0.217818 0,-0.124106 0.0861,-0.21022 0.0861,-0.08611 0.22035,-0.08611 z m 0.33939,1.248655 v 2.330148 h 0.75223 v 0.336858 h -2.00089 v -0.336858 h 0.82315 v -1.99329 h -0.79782 V 20.31002 Z" id="path53924"></path><path d="m 180.79327,22.683225 q 0.309,0 0.48629,-0.113975 0.17729,-0.113974 0.17729,-0.308998 0,-0.11904 -0.0456,-0.207687 -0.043,-0.08865 -0.17982,-0.159564 -0.13677,-0.07345 -0.42044,-0.144368 -0.27607,-0.06839 -0.48123,-0.157032 -0.20262,-0.09118 -0.31659,-0.235547 -0.11145,-0.144368 -0.11145,-0.37485 0,-0.336858 0.28114,-0.531882 0.28114,-0.195023 0.73197,-0.195023 0.32166,0 0.55974,0.08611 0.24062,0.08611 0.40778,0.207687 l -0.18743,0.288736 q -0.14943,-0.103844 -0.33432,-0.169696 -0.18236,-0.06838 -0.4407,-0.06838 -0.31407,0 -0.44577,0.09878 -0.1317,0.09624 -0.1317,0.250744 0,0.11904 0.0633,0.197556 0.0659,0.07598 0.22035,0.136769 0.15449,0.06079 0.4255,0.134237 0.26088,0.07092 0.4559,0.167163 0.19502,0.09624 0.3014,0.253277 0.10891,0.154499 0.10891,0.40271 0,0.28367 -0.1621,0.460964 -0.1621,0.174761 -0.42044,0.25581 -0.25581,0.07852 -0.54201,0.07852 -0.36219,0 -0.618,-0.103844 -0.25327,-0.106376 -0.4255,-0.25581 l 0.24314,-0.281137 q 0.15704,0.129171 0.35966,0.21022 0.20515,0.07852 0.4407,0.07852 z" id="path53926"></path><path d="M 185.96517,22.977026 V 20.31002 h 0.36218 l 0.0329,0.369784 q 0.1621,-0.205154 0.40524,-0.314063 0.24315,-0.111442 0.47616,-0.111442 0.39258,0 0.56988,0.207687 0.17982,0.207687 0.17982,0.577472 v 1.937568 h -0.4255 v -1.623505 q 0,-0.273539 -0.0304,-0.440702 -0.0304,-0.167163 -0.12918,-0.245679 -0.0962,-0.07851 -0.29633,-0.07851 -0.15703,0 -0.29633,0.06838 -0.13677,0.06839 -0.24568,0.172229 -0.10638,0.10131 -0.1773,0.205154 v 1.942634 z" id="path53928"></path><path d="m 190.02013,20.254299 q 0.5648,0 0.85354,0.377383 0.28873,0.377382 0.28873,1.010575 0,0.407775 -0.1317,0.721839 -0.1317,0.314063 -0.38751,0.49389 -0.25581,0.177294 -0.62813,0.177294 -0.56481,0 -0.85608,-0.379916 -0.29126,-0.379915 -0.29126,-1.008042 0,-0.410308 0.1317,-0.724372 0.1317,-0.316596 0.38751,-0.491357 0.25835,-0.177294 0.6332,-0.177294 z m 0,0.346989 q -0.34446,0 -0.52175,0.25581 -0.17477,0.25581 -0.17477,0.790224 0,0.529349 0.17223,0.785159 0.17476,0.253277 0.51922,0.253277 0.34446,0 0.51668,-0.25581 0.17477,-0.25581 0.17477,-0.787691 0,-0.531882 -0.17223,-0.785159 -0.17223,-0.25581 -0.51415,-0.25581 z" id="path53930"></path><path d="m 194.1612,22.842789 q -0.13677,0.09118 -0.3318,0.141835 -0.19502,0.05066 -0.38244,0.05066 -0.43058,0 -0.66359,-0.225417 -0.23301,-0.225416 -0.23301,-0.580004 V 20.63928 h -0.61293 v -0.32926 h 0.61293 v -0.605332 l 0.4255,-0.05066 v 0.655987 h 0.92193 l -0.0507,0.32926 h -0.87127 v 1.585514 q 0,0.222883 0.11651,0.339391 0.11904,0.116507 0.39258,0.116507 0.14943,0 0.27607,-0.03546 0.12664,-0.03546 0.23555,-0.09118 z" id="path53932"></path></g><path id="rect42789-9" style="fill:#ffffff;stroke:#040000;stroke-width:0.330177" transform="rotate(31.698543)" d="m 133.6034,79.549255 h 28.12968 c 0.42662,0 0.77007,0.30913 0.77007,0.693117 v 8.283591 c 0,0.383987 -0.34345,0.693117 -0.77007,0.693117 H 133.6034 c -0.42662,0 -0.77007,-0.30913 -0.77007,-0.693117 v -8.283591 c 0,-0.383987 0.34345,-0.693117 0.77007,-0.693117 z"></path><g aria-label="is" transform="rotate(31.698543)" id="text41101-2" style="font-size:4.9389px;line-height:1.25;font-family:FiraCode;-inkscape-font-specification:FiraCode;stroke-width:0.264583"><path d="m 146.09286,82.397213 q 0.14183,0 0.22541,0.08611 0.0861,0.08611 0.0861,0.21022 0,0.129171 -0.0861,0.217818 -0.0836,0.08611 -0.22541,0.08611 -0.13424,0 -0.22035,-0.08611 -0.0861,-0.08865 -0.0861,-0.217818 0,-0.124106 0.0861,-0.21022 0.0861,-0.08611 0.22035,-0.08611 z m 0.33939,1.248655 v 2.330148 h 0.75223 v 0.336858 h -2.00089 v -0.336858 h 0.82315 v -1.99329 h -0.79782 v -0.336858 z" id="path53936"></path><path d="m 149.02833,86.019073 q 0.309,0 0.48629,-0.113975 0.1773,-0.113975 0.1773,-0.308998 0,-0.11904 -0.0456,-0.207687 -0.0431,-0.08865 -0.17983,-0.159564 -0.13677,-0.07345 -0.42044,-0.144368 -0.27607,-0.06838 -0.48123,-0.157032 -0.20262,-0.09118 -0.31659,-0.235547 -0.11144,-0.144368 -0.11144,-0.37485 0,-0.336859 0.28113,-0.531882 0.28114,-0.195023 0.73197,-0.195023 0.32166,0 0.55975,0.08611 0.24061,0.08611 0.40777,0.207687 l -0.18741,0.28874 q -0.14944,-0.103844 -0.33433,-0.169696 -0.18236,-0.06838 -0.4407,-0.06838 -0.31406,0 -0.44577,0.09878 -0.1317,0.09624 -0.1317,0.250744 0,0.11904 0.0633,0.197556 0.0659,0.07598 0.22035,0.136769 0.1545,0.06079 0.4255,0.134237 0.26088,0.07092 0.4559,0.167163 0.19502,0.09625 0.3014,0.253277 0.10891,0.154499 0.10891,0.40271 0,0.28367 -0.1621,0.460964 -0.16209,0.174761 -0.42044,0.25581 -0.25581,0.07852 -0.54201,0.07852 -0.36219,0 -0.618,-0.103844 -0.25327,-0.106376 -0.4255,-0.25581 l 0.24315,-0.281137 q 0.15703,0.129171 0.35965,0.21022 0.20515,0.07852 0.4407,0.07852 z" id="path53938"></path></g><path id="rect42789-2-3" style="fill:#ffffff;stroke:#040000;stroke-width:0.445052" transform="rotate(-57.970739)" d="m -105.49348,187.80289 h 51.723018 c 0.784443,0 1.415962,0.30545 1.415962,0.68488 v 8.18518 c 0,0.37943 -0.631519,0.68489 -1.415962,0.68489 h -51.723018 c -0.78445,0 -1.41597,-0.30546 -1.41597,-0.68489 v -8.18518 c 0,-0.37943 0.63152,-0.68488 1.41597,-0.68488 z"></path><g aria-label="is not" transform="rotate(-57.970739)" id="text41101-7-6" style="font-size:4.9389px;line-height:1.25;font-family:FiraCode;-inkscape-font-specification:FiraCode;stroke-width:0.264583"><path d="m -87.32904,190.5934 q 0.141835,0 0.225417,0.0861 0.08611,0.0861 0.08611,0.21022 0,0.12917 -0.08611,0.21781 -0.08358,0.0861 -0.225417,0.0861 -0.134237,0 -0.220351,-0.0861 -0.08611,-0.0886 -0.08611,-0.21781 0,-0.12411 0.08611,-0.21022 0.08611,-0.0861 0.220351,-0.0861 z m 0.339391,1.24866 v 2.33015 h 0.752233 v 0.33685 h -2.000888 v -0.33685 h 0.82315 v -1.99329 h -0.797822 v -0.33686 z" id="path53988"></path><path d="m -84.393568,194.21526 q 0.308998,0 0.486292,-0.11397 0.177294,-0.11398 0.177294,-0.309 0,-0.11904 -0.04559,-0.20769 -0.04306,-0.0886 -0.179826,-0.15956 -0.13677,-0.0735 -0.42044,-0.14437 -0.276072,-0.0684 -0.481226,-0.15703 -0.202622,-0.0912 -0.316596,-0.23555 -0.111442,-0.14437 -0.111442,-0.37485 0,-0.33686 0.281137,-0.53188 0.281137,-0.19502 0.73197,-0.19502 0.321662,0 0.559742,0.0861 0.240613,0.0861 0.407776,0.20769 l -0.187425,0.28873 q -0.149433,-0.10384 -0.334325,-0.16969 -0.18236,-0.0684 -0.440702,-0.0684 -0.314063,0 -0.445767,0.0988 -0.131704,0.0962 -0.131704,0.25075 0,0.11904 0.06332,0.19755 0.06585,0.076 0.220351,0.13677 0.154499,0.0608 0.425505,0.13424 0.260875,0.0709 0.455898,0.16716 0.195024,0.0962 0.3014,0.25328 0.108909,0.1545 0.108909,0.40271 0,0.28367 -0.162097,0.46096 -0.162097,0.17476 -0.42044,0.25581 -0.25581,0.0785 -0.542013,0.0785 -0.362186,0 -0.617995,-0.10385 -0.253277,-0.10637 -0.425505,-0.25581 l 0.243145,-0.28113 q 0.157032,0.12917 0.359654,0.21022 0.205154,0.0785 0.440701,0.0785 z" id="path53990"></path><path d="m -79.221667,194.50906 v -2.667 h 0.362186 l 0.03293,0.36978 q 0.162097,-0.20515 0.405243,-0.31406 0.243146,-0.11144 0.47616,-0.11144 0.39258,0 0.569873,0.20768 0.179827,0.20769 0.179827,0.57748 v 1.93756 h -0.425505 v -1.6235 q 0,-0.27354 -0.03039,-0.4407 -0.03039,-0.16717 -0.129172,-0.24568 -0.09624,-0.0785 -0.296334,-0.0785 -0.157031,0 -0.296334,0.0684 -0.136769,0.0684 -0.245678,0.17223 -0.106377,0.10131 -0.177294,0.20515 v 1.94263 z" id="path53992"></path><path d="m -75.166711,191.78634 q 0.564808,0 0.853544,0.37738 0.288735,0.37738 0.288735,1.01057 0,0.40778 -0.131704,0.72184 -0.131704,0.31407 -0.387513,0.49389 -0.25581,0.1773 -0.628127,0.1773 -0.564808,0 -0.856076,-0.37992 -0.291269,-0.37991 -0.291269,-1.00804 0,-0.41031 0.131704,-0.72437 0.131704,-0.3166 0.387514,-0.49136 0.258343,-0.17729 0.633192,-0.17729 z m 0,0.34699 q -0.344456,0 -0.52175,0.25581 -0.174761,0.25581 -0.174761,0.79022 0,0.52935 0.172228,0.78516 0.174761,0.25328 0.519218,0.25328 0.344456,0 0.516685,-0.25581 0.174761,-0.25581 0.174761,-0.7877 0,-0.53188 -0.172228,-0.78515 -0.172229,-0.25581 -0.514153,-0.25581 z" id="path53994"></path><path d="m -71.02564,194.37483 q -0.136769,0.0912 -0.331793,0.14183 -0.195023,0.0507 -0.382448,0.0507 -0.430571,0 -0.663585,-0.22542 -0.233015,-0.22542 -0.233015,-0.58 v -1.59058 h -0.61293 v -0.32926 h 0.61293 v -0.60533 l 0.425505,-0.0507 v 0.65599 h 0.921928 l -0.05066,0.32926 h -0.871273 v 1.58551 q 0,0.22288 0.116508,0.33939 0.11904,0.11651 0.392579,0.11651 0.149433,0 0.276072,-0.0355 0.126638,-0.0355 0.235547,-0.0912 z" id="path53996"></path></g><path id="rect42789-9-7" style="fill:#ffffff;stroke:#040000;stroke-width:0.330177" transform="rotate(-29.649269)" d="m 15.09824,184.08601 h 28.129675 c 0.426621,0 0.770074,0.30913 0.770074,0.69312 v 8.28359 c 0,0.38399 -0.343453,0.69312 -0.770074,0.69312 H 15.09824 c -0.426621,0 -0.770074,-0.30913 -0.770074,-0.69312 v -8.28359 c 0,-0.38399 0.343453,-0.69312 0.770074,-0.69312 z"></path><g aria-label="is" transform="rotate(-29.649269)" id="text41101-2-5" style="font-size:4.9389px;line-height:1.25;font-family:FiraCode;-inkscape-font-specification:FiraCode;stroke-width:0.264583"><path d="m 27.587695,186.93396 q 0.141835,0 0.225416,0.0861 0.08611,0.0861 0.08611,0.21022 0,0.12917 -0.08611,0.21782 -0.08358,0.0861 -0.225416,0.0861 -0.134237,0 -0.220351,-0.0861 -0.08611,-0.0887 -0.08611,-0.21782 0,-0.12411 0.08611,-0.21022 0.08611,-0.0861 0.220351,-0.0861 z m 0.339391,1.24866 v 2.33015 h 0.752232 v 0.33685 h -2.000887 v -0.33685 h 0.82315 v -1.99329 h -0.797823 v -0.33686 z" id="path53910"></path><path d="m 30.523167,190.55582 q 0.308998,0 0.486292,-0.11397 0.177294,-0.11398 0.177294,-0.309 0,-0.11904 -0.04559,-0.20769 -0.04306,-0.0886 -0.179827,-0.15956 -0.136769,-0.0735 -0.420439,-0.14437 -0.276072,-0.0684 -0.481227,-0.15703 -0.202621,-0.0912 -0.316596,-0.23555 -0.111442,-0.14437 -0.111442,-0.37485 0,-0.33686 0.281138,-0.53188 0.281137,-0.19502 0.73197,-0.19502 0.321662,0 0.559742,0.0861 0.240613,0.0861 0.407776,0.20769 l -0.187425,0.28873 q -0.149433,-0.10384 -0.334326,-0.16969 -0.182359,-0.0684 -0.440701,-0.0684 -0.314064,0 -0.445768,0.0988 -0.131704,0.0962 -0.131704,0.25075 0,0.11904 0.06332,0.19755 0.06585,0.076 0.220351,0.13677 0.154499,0.0608 0.425506,0.13424 0.260875,0.0709 0.455898,0.16716 0.195023,0.0962 0.3014,0.25328 0.108909,0.1545 0.108909,0.40271 0,0.28367 -0.162098,0.46096 -0.162097,0.17476 -0.420439,0.25581 -0.25581,0.0785 -0.542013,0.0785 -0.362186,0 -0.617996,-0.10385 -0.253276,-0.10637 -0.425505,-0.2558 l 0.243146,-0.28114 q 0.157032,0.12917 0.359653,0.21022 0.205155,0.0785 0.440702,0.0785 z" id="path53912"></path></g><path id="rect42789-9-7-2" style="fill:#ffffff;stroke:#040000;stroke-width:0.330177" transform="rotate(90.033286)" d="m 163.37226,-105.89412 h 28.12968 c 0.42662,0 0.77007,0.30913 0.77007,0.69312 v 8.283589 c 0,0.383986 -0.34345,0.693116 -0.77007,0.693116 h -28.12968 c -0.42662,0 -0.77007,-0.30913 -0.77007,-0.693116 V -105.201 c 0,-0.38399 0.34345,-0.69312 0.77007,-0.69312 z"></path><g aria-label="is" transform="rotate(90.033286)" id="text41101-2-5-8" style="font-size:4.9389px;line-height:1.25;font-family:FiraCode;-inkscape-font-specification:FiraCode;stroke-width:0.264583"><path d="m 175.86172,-103.04616 q 0.14183,0 0.22541,0.0861 0.0861,0.0861 0.0861,0.21022 0,0.12917 -0.0861,0.21782 -0.0836,0.0861 -0.22541,0.0861 -0.13424,0 -0.22035,-0.0861 -0.0861,-0.0887 -0.0861,-0.21782 0,-0.1241 0.0861,-0.21022 0.0861,-0.0861 0.22035,-0.0861 z m 0.33939,1.24865 v 2.330151 h 0.75223 v 0.336858 h -2.00089 v -0.336858 h 0.82315 v -1.993291 h -0.79782 v -0.33686 z" id="path53970"></path><path d="m 178.79719,-99.424302 q 0.309,0 0.48629,-0.113975 0.1773,-0.113974 0.1773,-0.308997 0,-0.119041 -0.0456,-0.207686 -0.0431,-0.0887 -0.17983,-0.15957 -0.13677,-0.0735 -0.42044,-0.14436 -0.27607,-0.0684 -0.48123,-0.15704 -0.20262,-0.0912 -0.31659,-0.23554 -0.11144,-0.14437 -0.11144,-0.37485 0,-0.33686 0.28113,-0.53188 0.28114,-0.19503 0.73197,-0.19503 0.32166,0 0.55975,0.0861 0.24061,0.0861 0.40777,0.20768 l -0.18742,0.28874 q -0.14944,-0.10384 -0.33433,-0.1697 -0.18236,-0.0684 -0.4407,-0.0684 -0.31406,0 -0.44577,0.0988 -0.1317,0.0962 -0.1317,0.25074 0,0.11904 0.0633,0.19756 0.0658,0.076 0.22035,0.13677 0.1545,0.0608 0.4255,0.13423 0.26088,0.0709 0.4559,0.16717 0.19502,0.0962 0.3014,0.25327 0.10891,0.1545 0.10891,0.402713 0,0.283671 -0.1621,0.460964 -0.16209,0.174761 -0.42044,0.25581 -0.25581,0.07852 -0.54201,0.07852 -0.36219,0 -0.618,-0.103844 -0.25327,-0.106376 -0.4255,-0.255809 l 0.24315,-0.281138 q 0.15703,0.129172 0.35965,0.21022 0.20515,0.07852 0.4407,0.07852 z" id="path53972"></path></g><path id="path38141-3" style="fill:#ffffff;stroke:#040000;stroke-width:0.495616" d="M 74.752192,137.5 A 12.252192,12.252192 0 0 1 62.5,149.75219 12.252192,12.252192 0 0 1 50.247808,137.5 12.252192,12.252192 0 0 1 62.5,125.24781 12.252192,12.252192 0 0 1 74.752192,137.5 Z"></path><g aria-label="nixpkgs" id="text5204" style="font-size:4.9389px;line-height:1.25;font-family:FiraCode;-inkscape-font-specification:FiraCode;stroke-width:0.264583"><path d="m 52.366413,138.92088 v -2.667 h 0.362186 l 0.03293,0.36978 q 0.162097,-0.20515 0.405243,-0.31406 0.243146,-0.11144 0.476161,-0.11144 0.392579,0 0.569873,0.20768 0.179827,0.20769 0.179827,0.57747 v 1.93757 h -0.425506 v -1.6235 q 0,-0.27354 -0.03039,-0.4407 -0.03039,-0.16717 -0.129171,-0.24568 -0.09624,-0.0785 -0.296334,-0.0785 -0.157032,0 -0.296334,0.0684 -0.13677,0.0684 -0.245679,0.17222 -0.106376,0.10132 -0.177294,0.20516 v 1.94263 z" id="path53954"></path><path d="m 56.416304,135.00522 q 0.141835,0 0.225416,0.0861 0.08611,0.0861 0.08611,0.21022 0,0.12917 -0.08611,0.21781 -0.08358,0.0861 -0.225416,0.0861 -0.134237,0 -0.220351,-0.0861 -0.08611,-0.0886 -0.08611,-0.21781 0,-0.12411 0.08611,-0.21022 0.08611,-0.0861 0.220351,-0.0861 z m 0.339391,1.24866 v 2.33014 h 0.752233 v 0.33686 H 55.50704 v -0.33686 h 0.82315 v -1.99328 h -0.797822 v -0.33686 z" id="path53956"></path><path d="m 58.703387,138.92088 h -0.486291 l 0.985247,-1.40822 -0.863674,-1.25878 h 0.504021 l 0.617995,0.99284 0.625594,-0.99284 h 0.486292 l -0.861141,1.24105 0.982714,1.42595 h -0.52175 l -0.729438,-1.14481 z" id="path53958"></path><path d="m 62.677295,136.19816 q 0.354588,0 0.564808,0.17222 0.212752,0.17223 0.306465,0.4863 0.09371,0.31153 0.09371,0.72943 0,0.40271 -0.113975,0.71931 -0.111441,0.31406 -0.339391,0.49389 -0.227949,0.17983 -0.574938,0.17983 -0.438169,0 -0.70411,-0.309 v 1.27145 l -0.425505,0.0532 v -3.7409 h 0.362186 l 0.03546,0.37231 q 0.146901,-0.20515 0.349523,-0.31659 0.202621,-0.11144 0.445767,-0.11144 z m -0.101311,0.34192 q -0.220351,0 -0.390046,0.13424 -0.169696,0.1317 -0.276072,0.2938 v 1.3221 q 0.103843,0.1545 0.260875,0.24568 0.159565,0.0887 0.349522,0.0887 0.331793,0 0.498956,-0.25328 0.167163,-0.25327 0.167163,-0.78769 0,-1.0435 -0.610398,-1.0435 z" id="path53960"></path><path d="m 64.977043,135.12679 v 3.79409 h -0.425506 v -3.7409 z m 1.780536,1.12709 -1.200532,1.20053 1.339835,1.46647 H 66.33714 l -1.311975,-1.45634 1.180271,-1.21066 z" id="path53962"></path><path d="m 69.731044,135.97021 0.131704,0.40017 q -0.172229,0.0532 -0.364719,0.0659 -0.189958,0.0127 -0.415374,0.0127 0.463496,0.21275 0.463496,0.67118 0,0.39512 -0.26594,0.65093 -0.263408,0.25581 -0.737036,0.25581 -0.134237,0 -0.225417,-0.0127 -0.08865,-0.0127 -0.172228,-0.038 -0.06079,0.0431 -0.101311,0.11397 -0.03799,0.0684 -0.03799,0.14437 0,0.0962 0.07598,0.15957 0.07598,0.0633 0.281137,0.0633 h 0.481226 q 0.268474,0 0.481226,0.0962 0.212753,0.0962 0.336859,0.26088 0.124105,0.16209 0.124105,0.36725 0,0.39258 -0.334325,0.6028 -0.331793,0.21022 -0.939657,0.21022 -0.425506,0 -0.671184,-0.0887 -0.245679,-0.0861 -0.352055,-0.26594 -0.103844,-0.17729 -0.103844,-0.4483 h 0.384981 q 0,0.1545 0.06079,0.25581 0.06079,0.10131 0.220351,0.14943 0.159564,0.0507 0.458431,0.0507 0.440702,0 0.643323,-0.11144 0.202622,-0.10891 0.202622,-0.32673 0,-0.18996 -0.172229,-0.2862 -0.172228,-0.0962 -0.43057,-0.0962 h -0.476161 q -0.346989,0 -0.509087,-0.15197 -0.162097,-0.15196 -0.162097,-0.34952 0,-0.27354 0.293801,-0.46603 -0.4483,-0.23808 -0.4483,-0.73703 0,-0.27101 0.134237,-0.4787 0.134237,-0.21022 0.37485,-0.32926 0.240613,-0.11904 0.554676,-0.11904 0.336859,0 0.547078,-0.0279 0.21022,-0.0279 0.359654,-0.0785 0.151966,-0.0507 0.308998,-0.11904 z m -1.21573,0.53694 q -0.321661,0 -0.47616,0.17477 -0.151966,0.17476 -0.151966,0.4407 0,0.271 0.154498,0.44576 0.157032,0.17477 0.483759,0.17477 0.281138,0 0.430571,-0.16463 0.149434,-0.16463 0.149434,-0.45844 0,-0.61293 -0.590136,-0.61293 z" id="path53964"></path><path d="m 71.50904,138.62708 q 0.308998,0 0.486291,-0.11397 0.177294,-0.11398 0.177294,-0.309 0,-0.11904 -0.04559,-0.20769 -0.04306,-0.0886 -0.179826,-0.15956 -0.13677,-0.0735 -0.42044,-0.14437 -0.276072,-0.0684 -0.481226,-0.15703 -0.202622,-0.0912 -0.316596,-0.23555 -0.111442,-0.14437 -0.111442,-0.37485 0,-0.33686 0.281137,-0.53188 0.281138,-0.19502 0.731971,-0.19502 0.321661,0 0.559742,0.0861 0.240613,0.0861 0.407775,0.20769 l -0.187424,0.28873 q -0.149434,-0.10384 -0.334326,-0.16969 -0.182359,-0.0684 -0.440702,-0.0684 -0.314063,0 -0.445767,0.0988 -0.131704,0.0962 -0.131704,0.25075 0,0.11904 0.06332,0.19755 0.06585,0.076 0.220351,0.13677 0.154499,0.0608 0.425505,0.13424 0.260875,0.0709 0.455899,0.16716 0.195023,0.0962 0.301399,0.25328 0.108909,0.1545 0.108909,0.40271 0,0.28367 -0.162097,0.46096 -0.162097,0.17476 -0.42044,0.25581 -0.255809,0.0785 -0.542012,0.0785 -0.362186,0 -0.617996,-0.10385 -0.253277,-0.10637 -0.425505,-0.25581 l 0.243146,-0.28113 q 0.157031,0.12917 0.359653,0.21022 0.205154,0.0785 0.440702,0.0785 z" id="path53966"></path></g><path id="path38141-3-3" style="fill:#ffffff;stroke:#040000;stroke-width:0.495616" d="M 149.75219,137.5 A 12.252192,12.252192 0 0 1 137.5,149.75219 12.252192,12.252192 0 0 1 125.24781,137.5 12.252192,12.252192 0 0 1 137.5,125.24781 12.252192,12.252192 0 0 1 149.75219,137.5 Z"></path><g aria-label="NixOS" id="text15768" style="font-size:4.9389px;line-height:1.25;font-family:FiraCode;-inkscape-font-specification:FiraCode;stroke-width:0.264583"><path d="m 131.85193,139.4287 -1.22839,-3.06719 q 0.003,0.076 0.0177,0.28874 0.0152,0.21022 0.0279,0.48629 0.0127,0.27354 0.0127,0.54454 v 1.74762 h -0.40777 v -3.48763 h 0.5952 l 1.24865,3.07985 q -0.003,-0.0734 -0.0177,-0.26847 -0.0152,-0.19756 -0.0279,-0.47363 -0.0127,-0.27861 -0.0127,-0.59267 v -1.74508 h 0.40777 v 3.48763 z" id="path53942"></path><path d="m 134.41002,135.51303 q 0.14184,0 0.22542,0.0861 0.0861,0.0861 0.0861,0.21022 0,0.12917 -0.0861,0.21782 -0.0836,0.0861 -0.22542,0.0861 -0.13424,0 -0.22035,-0.0861 -0.0861,-0.0887 -0.0861,-0.21782 0,-0.12411 0.0861,-0.21022 0.0861,-0.0861 0.22035,-0.0861 z m 0.33939,1.24866 v 2.33015 h 0.75223 v 0.33686 h -2.00088 v -0.33686 h 0.82315 v -1.99329 h -0.79783 v -0.33686 z" id="path53944"></path><path d="m 136.6971,139.4287 h -0.48629 l 0.98525,-1.40822 -0.86367,-1.25879 h 0.50402 l 0.61799,0.99285 0.6256,-0.99285 h 0.48629 l -0.86114,1.24106 0.98271,1.42595 h -0.52175 l -0.72944,-1.14482 z" id="path53946"></path><path d="m 141.77277,137.68868 q 0,0.52935 -0.14437,0.9346 -0.14437,0.40524 -0.43057,0.63572 -0.28367,0.22795 -0.70918,0.22795 -0.4255,0 -0.71171,-0.22288 -0.28367,-0.22542 -0.42803,-0.62813 -0.14437,-0.40271 -0.14437,-0.94219 0,-0.52935 0.14437,-0.93713 0.14436,-0.40777 0.42803,-0.63825 0.28621,-0.23302 0.71171,-0.23302 0.42551,0 0.70918,0.22542 0.2862,0.22541 0.43057,0.63319 0.14437,0.40524 0.14437,0.94472 z m -0.46097,0 q 0,-0.69651 -0.19249,-1.06629 -0.18996,-0.36979 -0.63066,-0.36979 -0.4407,0 -0.63319,0.37232 -0.18996,0.37232 -0.18996,1.06883 0,0.69651 0.19756,1.06123 0.19755,0.36219 0.62559,0.36219 0.4407,0 0.63066,-0.36472 0.19249,-0.36726 0.19249,-1.06377 z" id="path53948"></path><path d="m 144.72597,138.46371 q 0,0.3014 -0.14943,0.53188 -0.14944,0.23048 -0.43564,0.36219 -0.28367,0.12917 -0.68891,0.12917 -0.38245,0 -0.69398,-0.11651 -0.309,-0.11651 -0.52935,-0.32926 l 0.26087,-0.2938 q 0.17983,0.1697 0.41538,0.27101 0.23555,0.0988 0.55467,0.0988 0.21276,0 0.39765,-0.0684 0.18489,-0.0709 0.29887,-0.21275 0.11397,-0.14437 0.11397,-0.36472 0,-0.16716 -0.0659,-0.2862 -0.0658,-0.12158 -0.23302,-0.21276 -0.16716,-0.0937 -0.46603,-0.18236 -0.34445,-0.10131 -0.59773,-0.22795 -0.25074,-0.12917 -0.39005,-0.31406 -0.13677,-0.18742 -0.13677,-0.46603 0,-0.26087 0.14437,-0.46349 0.14437,-0.20263 0.39765,-0.3166 0.25581,-0.11651 0.5876,-0.11651 0.36219,0 0.62813,0.10385 0.26847,0.10131 0.48629,0.2938 l -0.25834,0.2862 q -0.18743,-0.16463 -0.40271,-0.24061 -0.21529,-0.076 -0.43817,-0.076 -0.28621,0 -0.49136,0.12664 -0.20516,0.12664 -0.20516,0.38752 0,0.15196 0.081,0.26087 0.0811,0.10638 0.27354,0.19756 0.19249,0.0912 0.52429,0.18742 0.271,0.0785 0.50148,0.19756 0.23302,0.1165 0.37485,0.31913 0.14184,0.20009 0.14184,0.53441 z" id="path53950"></path></g><path id="path38141" style="fill:#ffffff;stroke:#040000;stroke-width:0.495616" d="m 113.12894,199.37956 a 12.252192,12.252192 0 0 1 -12.25219,12.25219 12.252192,12.252192 0 0 1 -12.252194,-12.25219 12.252192,12.252192 0 0 1 12.252194,-12.25219 12.252192,12.252192 0 0 1 12.25219,12.25219 z"></path><g aria-label="NixDSL" id="text23362" style="font-size:4.9389px;line-height:1.25;font-family:FiraCode;-inkscape-font-specification:FiraCode;stroke-width:0.264583"><path d="m 98.247746,198.22145 -1.228393,-3.06718 q 0.0025,0.076 0.01773,0.28873 0.0152,0.21022 0.02786,0.48629 0.01266,0.27354 0.01266,0.54455 v 1.74761 h -0.407775 v -3.48762 h 0.5952 l 1.248656,3.07984 q -0.0025,-0.0735 -0.01773,-0.26847 -0.0152,-0.19755 -0.02786,-0.47363 -0.01266,-0.2786 -0.01266,-0.59266 v -1.74508 h 0.407776 v 3.48762 z" style="text-align:center;text-anchor:middle" id="path53896"></path><path d="m 100.80584,194.30579 q 0.14183,0 0.22541,0.0861 0.0861,0.0861 0.0861,0.21022 0,0.12917 -0.0861,0.21782 -0.0836,0.0861 -0.22541,0.0861 -0.13424,0 -0.22036,-0.0861 -0.0861,-0.0887 -0.0861,-0.21782 0,-0.1241 0.0861,-0.21022 0.0861,-0.0861 0.22036,-0.0861 z m 0.33939,1.24865 v 2.33015 h 0.75223 v 0.33686 h -2.000889 v -0.33686 h 0.823149 v -1.99329 h -0.797821 v -0.33686 z" style="text-align:center;text-anchor:middle" id="path53898"></path><path d="m 103.09292,198.22145 h -0.48629 l 0.98524,-1.40822 -0.86367,-1.25879 h 0.50402 l 0.618,0.99285 0.62559,-0.99285 h 0.48629 l -0.86114,1.24106 0.98272,1.42595 h -0.52175 l -0.72944,-1.14481 z" style="text-align:center;text-anchor:middle" id="path53900"></path><path d="m 99.045568,202.6348 q 0,0.54708 -0.141835,0.89407 -0.141835,0.34446 -0.37485,0.53441 -0.233015,0.18743 -0.511619,0.26088 -0.276072,0.0709 -0.547078,0.0709 h -0.800355 v -3.48763 h 0.744634 q 0.306465,0 0.595201,0.0684 0.291268,0.0684 0.524283,0.25327 0.235547,0.18236 0.372317,0.52175 0.139302,0.3394 0.139302,0.88394 z m -0.468562,0 q 0,-0.4559 -0.09624,-0.72944 -0.09625,-0.27354 -0.253277,-0.4103 -0.157032,-0.13677 -0.344457,-0.18236 -0.184892,-0.0456 -0.364719,-0.0456 H 97.108 v 2.77591 h 0.415374 q 0.187425,0 0.37485,-0.0583 0.187425,-0.0608 0.339391,-0.21276 0.154499,-0.15196 0.245678,-0.42803 0.09371,-0.27608 0.09371,-0.70918 z" style="text-align:center;text-anchor:middle" id="path53902"></path><path d="m 102.00384,203.43009 q 0,0.3014 -0.14944,0.53188 -0.14943,0.23048 -0.43563,0.36219 -0.28367,0.12917 -0.68892,0.12917 -0.38245,0 -0.69398,-0.11651 -0.308994,-0.11651 -0.529345,-0.32926 l 0.260875,-0.2938 q 0.179827,0.1697 0.41537,0.27101 0.23555,0.0988 0.55468,0.0988 0.21275,0 0.39765,-0.0684 0.18489,-0.0709 0.29886,-0.21275 0.11398,-0.14437 0.11398,-0.36472 0,-0.16716 -0.0658,-0.2862 -0.0659,-0.12158 -0.23302,-0.21276 -0.16716,-0.0937 -0.46603,-0.18236 -0.34446,-0.10131 -0.59773,-0.22795 -0.250747,-0.12917 -0.390049,-0.31406 -0.13677,-0.18742 -0.13677,-0.46603 0,-0.26087 0.144368,-0.46349 0.144368,-0.20263 0.397641,-0.3166 0.25581,-0.11651 0.58761,-0.11651 0.36218,0 0.62812,0.10385 0.26848,0.10131 0.48629,0.2938 l -0.25834,0.2862 q -0.18742,-0.16463 -0.40271,-0.24061 -0.21528,-0.076 -0.43817,-0.076 -0.2862,0 -0.49135,0.12664 -0.20516,0.12664 -0.20516,0.38752 0,0.15196 0.081,0.26087 0.0811,0.10638 0.27354,0.19756 0.19249,0.0912 0.52428,0.18742 0.27101,0.0785 0.50149,0.19756 0.23302,0.1165 0.37485,0.31913 0.14184,0.20009 0.14184,0.53441 z" style="text-align:center;text-anchor:middle" id="path53904"></path><path d="m 103.01187,204.39508 v -3.48763 h 0.4407 v 3.09505 h 1.59058 l -0.0506,0.39258 z" style="text-align:center;text-anchor:middle" id="path53906"></path></g><path id="path38141-2" style="fill:#ffffff;stroke:#040000;stroke-width:0.396493" d="m 110.6785,159.28131 a 9.801753,9.801753 0 0 1 -9.80175,9.80175 9.801753,9.801753 0 0 1 -9.801756,-9.80175 9.801753,9.801753 0 0 1 9.801756,-9.80175 9.801753,9.801753 0 0 1 9.80175,9.80175 z"></path><g aria-label="Nix" id="text23362-6" style="font-size:6.35px;line-height:1.25;font-family:FiraCode;-inkscape-font-specification:FiraCode;stroke-width:0.264583"><path d="m 97.496608,161.79852 -1.579359,-3.94351 q 0.0033,0.0977 0.0228,0.37123 0.01954,0.27028 0.03582,0.62523 0.01628,0.35169 0.01628,0.70013 v 2.24692 h -0.524282 v -4.48407 h 0.765257 l 1.60541,3.95979 q -0.0033,-0.0944 -0.0228,-0.34518 -0.01954,-0.254 -0.03582,-0.60895 -0.01628,-0.3582 -0.01628,-0.762 v -2.24366 h 0.524282 v 4.48407 z" style="text-align:center;text-anchor:middle" id="path53916"></path><path d="m 100.78557,156.76411 q 0.18236,0 0.28982,0.11072 0.11072,0.11072 0.11072,0.27028 0,0.16608 -0.11072,0.28005 -0.10746,0.11072 -0.28982,0.11072 -0.17259,0 -0.2833,-0.11072 -0.11072,-0.11397 -0.11072,-0.28005 0,-0.15956 0.11072,-0.27028 0.11071,-0.11072 0.2833,-0.11072 z m 0.43636,1.60541 v 2.9959 h 0.96716 v 0.4331 h -2.572568 v -0.4331 h 1.058328 v -2.56279 h -1.025764 v -0.43311 z" style="text-align:center;text-anchor:middle" id="path53918"></path><path d="m 103.7261,161.79852 h -0.62523 l 1.26674,-1.81056 -1.11043,-1.61844 h 0.64802 l 0.79457,1.27652 0.80433,-1.27652 h 0.62523 l -1.10718,1.59564 1.26349,1.83336 h -0.67082 l -0.93785,-1.47189 z" style="text-align:center;text-anchor:middle" id="path53920"></path></g></g></g></svg>